# xmcd
#
# Track frame offsets: 
#        150
#        15121
#        30159
#        50066
#        65611
#        93532
#        99890
#        119046
#        148521
#        166271
#        182312
#        200271
#        218965
#        248288
#
# Disc length: 3464 seconds
#
# Revision: 0
# Processed by: cddbd v1.5.2PL0 Copyright (c) Steve Scherf et al.
# Submitted via: ExactAudioCopy v0.99pb4
#
DISCID=ad0d860e
DTITLE=Sir Jay and his blue orchestra - Blues for Uncle Sam
DYEAR=2008
DGENRE=Blues
TTITLE0=Too many drinks
TTITLE1=Sweet things aint for me
TTITLE2=Funky outtake no 1
TTITLE3=My baby's decision
TTITLE4=Tired of being your main fool
TTITLE5=One string roller
TTITLE6=Time is running out
TTITLE7=I'm stranded in Copenhagen
TTITLE8=I've got ants in my pants
TTITLE9=You must have been a pretty child
TTITLE10=Jumping with Jay
TTITLE11=Blues for Uncle Sam
TTITLE12=Will she always be around?
TTITLE13=Honeysuckle rose
EXTD=
EXTT0=
EXTT1=
EXTT2=
EXTT3=
EXTT4=
EXTT5=
EXTT6=
EXTT7=
EXTT8=
EXTT9=
EXTT10=
EXTT11=
EXTT12=
EXTT13=
PLAYORDER=
